<svg xmlns="http://www.w3.org/2000/svg" width="175.01" height="32.197" viewBox="0 0 1330.872 244.844">
  <defs>
    <style>
      .cls-1 {
        fill: #fff;
        fill-rule: evenodd;
      }
    </style>
  </defs>
  <path id="text" class="cls-1" d="M555.589,349.348c0,12.846,1.691,33.227-12.4,38.531v0.836h46.485c21.13,0,43.387.836,63.108-8.655,18.875-8.932,33.807-27.358,33.807-48.86,0-27.361-20.566-44.109-45.922-49.415,16.059-6.979,28.174-17.587,28.174-36.294,0-24.85-21.694-40.484-58.882-40.484h-66.77v0.837c14.368,5.305,12.4,25.685,12.4,38.25V349.348Zm28.737,17.032V297.419l19.721-1.117c24.792-1.4,51.274,10.332,51.274,37.412,0,26.525-23.383,37.136-46.485,34.9Zm0-87.386V224.271l18.875-1.952c16.9-1.678,34.935,8.374,34.935,27.64,0,22.893-26.2,29.035-44.513,29.035h-9.3ZM773.365,392.345c39.723,0,73.531-29.036,73.531-69.24,0-18.986-8.734-37.413-23.1-49.976-13.523-11.725-29.018-16.471-47.049-16.471-40.569,0-74.658,27.081-74.658,68.961C702.087,365.266,734.767,392.345,773.365,392.345Zm1.408-18.424c-28.736,0-44.232-27.643-44.232-53.329,0-25.128,16.9-45.508,43.1-45.508,30.145,0,44.8,26.805,44.8,53.883C818.441,354.1,800.692,373.921,774.773,373.921Zm156.361,18.424c39.724,0,73.536-29.036,73.536-69.24,0-18.986-8.738-37.413-23.106-49.976-13.523-11.725-29.018-16.471-47.049-16.471-40.569,0-74.659,27.081-74.659,68.961C859.856,365.266,892.538,392.345,931.134,392.345Zm1.409-18.424c-28.737,0-44.231-27.643-44.231-53.329,0-25.128,16.9-45.508,43.1-45.508,30.145,0,44.795,26.805,44.795,53.883C976.211,354.1,958.462,373.921,932.543,373.921Zm175.8-113.632c-10.14-2.795-20.84-3.631-31.27-3.631-24.23,0-55.22,7.818-55.22,37.409,0,42.442,76.35,33.5,76.35,61.7,0,14.242-19.44,18.151-30.99,18.151-19.44,0-36.62-5.307-52.96-15.637l9.86,27.358a96.664,96.664,0,0,0,36.62,6.7c36.34,0,63.11-17.589,63.11-43.553,0-44.391-76.35-35.457-76.35-60.306,0-11.167,16.9-13.4,26.2-13.4a73.422,73.422,0,0,1,34.65,8.936V260.289Zm70.72,18.424h16.9c7.33,0,15.78-.557,20.29,5.307h0.84V258.612h-0.84c-2.82,1.677-7.05,1.677-10.71,1.677h-26.48v-41.6h-11.27c0,25.965-7.04,45.511-33.53,49.977v10.049h19.16v58.071c0,10.892-3.94,55.561,39.73,55.561a31.994,31.994,0,0,0,9.01-1.4l14.93-19.819c-3.66,1.394-7.32,2.793-11.27,2.793-30.14,0-26.76-28.757-26.76-39.368v-55.84Zm64.01-73.722v0.839c14.38,5.3,12.4,25.688,12.4,38.526V349.61c0,12.563,1.98,33.223-12.4,38.247v0.84h53.85v-0.84c-14.38-5.024-12.69-25.4-12.69-38.247V224.538a149.167,149.167,0,0,1,19.17-2.233c18.89-.84,36.37,10.887,36.37,30.986,0,26.247-26.22,36.572-48.77,39.923l25.94,39.364,34.39,42.156c8.46,10.334,17.77,13.963,32.71,13.963h25.94c-16.07-10.055-33.84-24.569-45.68-39.087l-40.6-50.531c23.12-5.306,44.83-24.569,44.83-49.136,0-25.4-20.58-44.952-58.36-44.952h-67.1Zm219.07,187.335c39.76,0,73.59-29.036,73.59-69.237,0-18.986-8.74-37.413-23.12-49.974-13.53-11.725-29.04-16.471-47.09-16.471-40.59,0-74.71,27.079-74.71,68.957C1390.81,365.246,1423.52,392.326,1462.14,392.326Zm1.41-18.43c-28.76,0-44.26-27.634-44.26-53.32,0-25.131,16.91-45.51,43.13-45.51,30.17,0,44.83,26.8,44.83,53.883C1507.25,354.08,1489.49,373.9,1463.55,373.9Zm153.95-10.047-41.45-92.409c-3.1-6.982-8.46-11.167-18.89-11.167H1533.2v0.837c13.53,5.025,16.91,14.8,22.55,27.081l34.4,74.263c5.36,11.722,5.36,13.118,14.66,22.333l1.13,1.394-1.69,4.47c-5.92,15.355-14.38,36.292-34.12,36.292-5.92,0-10.99-3.627-15.79-6.7l-25.37,18.148c10.99,4.188,21.43,6.979,33.55,6.979,26.5,0,46.24-10.608,61.46-46.623l58.65-138.473h-39.48v0.837c13.54,6.144,7.05,20.938,2.82,31.825ZM1821.35,373.9c-23.4-2.508-23.97-10.884-23.97-32.94V299.079c-0.28-33.781-23.4-42.435-53.85-42.435l-18.32,1.672-18.89,27.919c12.68-5.862,23.96-11.169,38.34-11.169,10.43,0,27.07,4.472,27.07,17.869,0,30.432-84.3,6.42-84.3,58.353,0,23.171,19.73,41.038,48.21,41.038a86.813,86.813,0,0,0,14.66-1.4l16.63-20.94c-6.76,1.956-13.53,3.909-20.3,3.909-14.94,0-30.73-5.581-30.73-22.888,0-17.032,15.23-20.1,28.76-23.177,9.3-2.23,18.89-4.464,27.07-8.652V363.29c0,22.333,18.6,27.919,37.21,29.036Zm6.2-168.9v0.839c12.13,6.982,10.44,17.309,10.44,30.155V357.708c0,12.841,1.69,23.17-10.44,30.149v0.84h46.53v-0.84c-12.41-6.979-10.44-17.308-10.44-30.149V200.527h-0.84c-4.23,4.746-11.56,4.464-18.05,4.464h-17.2Z" transform="translate(-543.188 -200.531)"/>
</svg>
