<svg width="70" height="70" viewBox="0 0 70 70" fill="none" xmlns="http://www.w3.org/2000/svg">
<path id="Vector" d="M70.047 47.3772C70.0417 43.1881 68.8763 39.0824 66.68 35.5152C64.4836 31.948 61.3422 29.0586 57.604 27.1679C57.473 35.193 54.2223 42.852 48.5407 48.5213C42.8592 54.1905 35.1934 57.4246 27.168 57.5382C28.5631 60.3057 30.5118 62.7571 32.8932 64.7406C35.2747 66.724 38.0381 68.1973 41.0123 69.069C43.9864 69.9406 47.1079 70.1921 50.1833 69.8079C53.2586 69.4237 56.2223 68.4118 58.8905 66.8352L69.9061 69.8778L66.8541 58.8623C68.9333 55.3913 70.0365 51.4233 70.047 47.3772ZM53.5096 26.7171C53.5067 22.6071 52.5564 18.553 50.7323 14.8698C48.9082 11.1867 46.2595 7.97373 42.992 5.48049C39.7245 2.98724 35.9262 1.28094 31.8921 0.494078C27.858 -0.292787 23.6969 -0.139065 19.7319 0.943449C15.7669 2.02596 12.1049 4.00809 9.03034 6.73574C5.9558 9.4634 3.55152 12.8632 2.0043 16.671C0.457088 20.4787 -0.191404 24.5919 0.10921 28.6909C0.409824 32.79 1.65145 36.7645 3.73762 40.3058L0.131506 53.3499L13.1755 49.7437C17.2363 52.1347 21.8567 53.4103 26.569 53.4414C31.2813 53.4725 35.9182 52.2579 40.0102 49.9207C44.1021 47.5835 47.504 44.2067 49.8712 40.132C52.2385 36.0574 53.4871 31.4295 53.4908 26.7171H53.5096Z" fill="#FF9155"/>
</svg>
