<svg width="70" height="70" viewBox="0 0 70 70" fill="none" xmlns="http://www.w3.org/2000/svg">
<g id="service-feature-icon-3 (1) 1">
<path id="Vector" d="M15.3125 32.8125C11.8327 32.8163 8.49654 34.2004 6.03594 36.6609C3.57536 39.1216 2.19132 42.4577 2.1875 45.9375C2.26792 50.2396 3.40428 54.4562 5.49662 58.2163C7.58897 61.9763 10.5732 65.1644 14.1868 67.5005C14.5268 67.7046 14.9159 67.8125 15.3125 67.8125C15.7091 67.8125 16.0981 67.7046 16.4382 67.5005C20.0518 65.1644 23.036 61.9763 25.1284 58.2163C27.2208 54.4562 28.357 50.2396 28.4375 45.9375C28.4337 42.4577 27.0496 39.1216 24.5891 36.6609C22.1284 34.2004 18.7923 32.8163 15.3125 32.8125ZM15.3125 50.3125C14.4472 50.3125 13.6014 50.0559 12.8819 49.5751C12.1624 49.0945 11.6017 48.4112 11.2705 47.6118C10.9394 46.8123 10.8528 45.9326 11.0216 45.084C11.1904 44.2354 11.607 43.4558 12.2189 42.844C12.8308 42.2321 13.6103 41.8153 14.459 41.6465C15.3076 41.4777 16.1873 41.5644 16.9868 41.8955C17.7862 42.2267 18.4695 42.7873 18.9501 43.5069C19.4309 44.2263 19.6875 45.0722 19.6875 45.9375C19.6864 47.0974 19.225 48.2096 18.4048 49.0298C17.5846 49.85 16.4724 50.3114 15.3125 50.3125Z" fill="#FF9155"/>
<path id="Vector_2" d="M54.6875 2.1875C51.2077 2.19132 47.8716 3.57536 45.4109 6.03594C42.9504 8.49654 41.5663 11.8327 41.5625 15.3125C41.643 19.6146 42.7792 23.8312 44.8716 27.5913C46.964 31.3512 49.9482 34.5394 53.5618 36.8755C53.9019 37.0796 54.2909 37.1875 54.6875 37.1875C55.0841 37.1875 55.4731 37.0796 55.8132 36.8755C59.4268 34.5394 62.411 31.3512 64.5034 27.5913C66.5958 23.8312 67.732 19.6146 67.8125 15.3125C67.8087 11.8327 66.4246 8.49654 63.9641 6.03594C61.5034 3.57536 58.1673 2.19132 54.6875 2.1875ZM54.6875 19.6875C53.8222 19.6875 52.9763 19.4309 52.2569 18.9501C51.5373 18.4695 50.9767 17.7862 50.6455 16.9868C50.3144 16.1873 50.2277 15.3076 50.3965 14.459C50.5653 13.6103 50.9821 12.8308 51.594 12.2189C52.2058 11.607 52.9854 11.1904 53.834 11.0216C54.6826 10.8528 55.5623 10.9394 56.3618 11.2705C57.1612 11.6017 57.8445 12.1624 58.3251 12.8819C58.8059 13.6014 59.0625 14.4472 59.0625 15.3125C59.0614 16.4724 58.6 17.5846 57.7797 18.4048C56.9596 19.225 55.8474 19.6864 54.6875 19.6875Z" fill="#FF9155"/>
<path id="Vector_3" d="M63.4369 56.875C63.4358 59.7755 62.2832 62.5569 60.2322 64.6078C58.1812 66.6588 55.3998 67.8114 52.4994 67.8125H23.0557C24.4814 66.4668 25.7914 65.0033 26.9712 63.4375H52.4994C54.2399 63.4375 55.909 62.7461 57.1398 61.5154C58.3705 60.2846 59.0619 58.6155 59.0619 56.875C59.0619 55.1345 58.3705 53.4654 57.1398 52.2346C55.909 51.0039 54.2399 50.3125 52.4994 50.3125H41.5619C39.2413 50.3125 37.0157 49.3906 35.3747 47.7497C33.7338 46.1087 32.8119 43.8832 32.8119 41.5625C32.8119 39.2418 33.7338 37.0163 35.3747 35.3753C37.0157 33.7344 39.2413 32.8125 41.5619 32.8125H43.0275C44.2074 34.3783 45.5172 35.8418 46.9432 37.1875H41.5619C40.4015 37.1875 39.2888 37.6484 38.4682 38.469C37.6478 39.2894 37.1869 40.4023 37.1869 41.5625C37.1869 42.7228 37.6478 43.8356 38.4682 44.656C39.2888 45.4766 40.4015 45.9375 41.5619 45.9375H52.4994C55.3998 45.9386 58.1812 47.0912 60.2322 49.1422C62.2832 51.1931 63.4358 53.9745 63.4369 56.875Z" fill="#FF9155"/>
</g>
</svg>
